<?xml version="1.0" encoding="UTF-8" standalone="no"?>
<svg width="70px" height="70px" viewBox="0 0 70 70" version="1.1" xmlns="http://www.w3.org/2000/svg" xmlns:xlink="http://www.w3.org/1999/xlink" xmlns:sketch="http://www.bohemiancoding.com/sketch/ns">
    <!-- Generator: Sketch 3.3.2 (12043) - http://www.bohemiancoding.com/sketch -->
    <title>pin</title>
    <desc>Created with Sketch.</desc>
    <defs></defs>
    <g id="Page-1" stroke="none" stroke-width="1" fill="none" fill-rule="evenodd" sketch:type="MSPage">
        <g id="pin" sketch:type="MSArtboardGroup" fill="#111111">
            <path d="M37.982813,52.7897846 C48.1680732,51.3414966 56,42.5853706 56,32 C56,20.4020203 46.5979797,11 35,11 C23.4020203,11 14,20.4020203 14,32 C14,42.6141026 21.8745012,51.3890169 32.100177,52.8014163 L32.8753712,59.0029699 C32.9433705,59.5469637 33.4519098,60 34.0093689,60 L35.9906311,60 C36.5566468,60 37.077986,59.5659192 37.1741867,59.0304534 C37.1741867,59.0304534 37.8644002,55.4261306 37.982813,52.7897846 L37.982813,52.7897846 Z M35,49 C44.3888407,49 52,41.3888407 52,32 C52,22.6111593 44.3888407,15 35,15 C25.6111593,15 18,22.6111593 18,32 C18,41.3888407 25.6111593,49 35,49 Z M35,38 C38.3137085,38 41,35.3137085 41,32 C41,28.6862915 38.3137085,26 35,26 C31.6862915,26 29,28.6862915 29,32 C29,35.3137085 31.6862915,38 35,38 Z" id="Oval-37" sketch:type="MSShapeGroup"></path>
        </g>
    </g>
</svg>