<?xml version="1.0" encoding="UTF-8" standalone="no"?>
<svg width="70px" height="70px" viewBox="0 0 70 70" version="1.1" xmlns="http://www.w3.org/2000/svg" xmlns:xlink="http://www.w3.org/1999/xlink" xmlns:sketch="http://www.bohemiancoding.com/sketch/ns">
    <!-- Generator: Sketch 3.3.1 (12002) - http://www.bohemiancoding.com/sketch -->
    <title>pin</title>
    <desc>Created with Sketch.</desc>
    <defs></defs>
    <g id="Page-1" stroke="none" stroke-width="1" fill="none" fill-rule="evenodd" sketch:type="MSPage">
        <g id="pin" sketch:type="MSArtboardGroup" fill="#000000">
            <path d="M34.2105263,9 C25.94,9 20,14.94 20,23.2105263 C20,30.06 25.94,36 34.2105263,36 C41.06,36 47,30.06 47,23.2105263 C47,14.94 41.06,9 34.2105263,9 L34.2105263,9 Z M30,23 C27.8662873,23 26,21.1337127 26,19 C26,16.8662873 27.8662873,15 30,15 C32.1337127,15 34,16.8662873 34,19 C34,21.1337127 32.1337127,23 30,23 L30,23 Z M32,60 L34,62 L36,60 L36,38 L32,38 L32,60 Z" sketch:type="MSShapeGroup"></path>
        </g>
    </g>
</svg>