<?xml version="1.0" encoding="UTF-8" standalone="no"?>
<svg width="70px" height="70px" viewBox="0 0 70 70" version="1.1" xmlns="http://www.w3.org/2000/svg" xmlns:xlink="http://www.w3.org/1999/xlink" xmlns:sketch="http://www.bohemiancoding.com/sketch/ns">
    <!-- Generator: Sketch 3.3.1 (12002) - http://www.bohemiancoding.com/sketch -->
    <title>refresh</title>
    <desc>Created with Sketch.</desc>
    <defs></defs>
    <g id="Page-1" stroke="none" stroke-width="1" fill="none" fill-rule="evenodd" sketch:type="MSPage">
        <g id="refresh" sketch:type="MSArtboardGroup" fill="#000000">
            <path d="M49.82,16.28 C45.6066667,12.738 40.1746667,10.6 34.25,10.6 C20.8773333,10.6 10,21.4773333 10,34.85 C10,48.2226667 20.8773333,59.1 34.25,59.1 C40.9246667,59.1 46.9766667,56.3893333 51.3673333,52.0113333 L48.5393333,49.1833333 C44.8746667,52.8366667 39.8226667,55.1 34.25,55.1 C23.0833333,55.1 14,46.0166667 14,34.85 C14,23.6833333 23.0833333,14.6 34.25,14.6 C39.07,14.6 43.5,16.2953333 46.982,19.118 L40,26.1 L57,26.1 L57,9.1 L49.82,16.28 Z" id="Imported-Layers" sketch:type="MSShapeGroup"></path>
        </g>
    </g>
</svg>