<?xml version="1.0" encoding="UTF-8" standalone="no"?>
<svg width="70px" height="70px" viewBox="0 0 70 70" version="1.1" xmlns="http://www.w3.org/2000/svg" xmlns:xlink="http://www.w3.org/1999/xlink" xmlns:sketch="http://www.bohemiancoding.com/sketch/ns">
    <!-- Generator: Sketch 3.3.1 (12002) - http://www.bohemiancoding.com/sketch -->
    <title>settings</title>
    <desc>Created with Sketch.</desc>
    <defs></defs>
    <g id="Page-1" stroke="none" stroke-width="1" fill="none" fill-rule="evenodd" sketch:type="MSPage">
        <g id="settings" sketch:type="MSArtboardGroup" fill="#000000">
            <path d="M38.0117159,12.6227279 L39.9141653,17.971819 C41.1886959,18.3407219 42.4164937,18.8515758 43.5550744,19.4831306 L48.6863347,17.0419119 L52.9483652,21.3021446 L50.5080639,26.4319341 C51.1393814,27.5811429 51.6500433,28.7992023 52.0188075,30.0810122 L57.3692871,31.9773767 L57.3692871,38.0064731 L52.0188075,39.9096378 C51.6500433,41.1880476 51.1393814,42.412907 50.5080639,43.5553158 L52.9483652,48.6851053 L48.6863347,52.9487381 L43.5550744,50.5083693 C42.413095,51.1424742 41.1886959,51.6533281 39.9141653,52.0222309 L38.0117159,57.3713221 L31.9882841,57.3713221 L30.082436,52.0222309 C28.8045066,51.6533281 27.5835063,51.1424742 26.4381281,50.5083693 L21.3068678,52.9487381 L17.0490858,48.6851053 L19.4885374,43.5553158 C18.8572199,42.409507 18.3431592,41.1880476 17.974395,39.9096378 L12.6273142,38.0064731 L12.6273142,31.9773767 L17.974395,30.0810122 C18.3431592,28.7992023 18.8546708,27.5777429 19.4885374,26.4319341 L17.0516348,21.3089447 L21.3102665,17.0487119 L26.4415268,19.4890807 C27.586905,18.8583758 28.8079054,18.3475219 30.0858347,17.9786191 L31.9908332,12.6295279 L38.0117159,12.6295279 L38.0117159,12.6227279 Z M34.9987255,43.2102132 C39.529257,43.2102132 43.1999052,39.5339349 43.1999052,35.0051 C43.1999052,30.4728652 39.5258583,26.7974369 34.9987255,26.7974369 C30.4681939,26.7974369 26.7932973,30.4762652 26.7932973,35.0051 C26.7932973,39.5373349 30.4681939,43.2102132 34.9987255,43.2102132 L34.9987255,43.2102132 Z M40.5641759,9 L29.4324254,9 L28.572542,11.4080685 L27.2580761,15.106447 C26.9725813,15.2160978 26.6904851,15.3325487 26.4117878,15.4583497 L22.8668932,13.7685367 L20.5565941,12.6728783 L18.7484599,14.4825422 L14.4898283,18.7385249 L12.6808445,20.5515889 L13.7760911,22.8627566 L15.4584715,26.4123839 C15.3361166,26.6911861 15.2197095,26.9733883 15.1100998,27.2555904 L11.4131113,28.5739506 L9,29.4273571 L9,40.5768929 L11.4131113,41.4336995 L15.1100998,42.7486596 C15.2197095,43.0274617 15.3361166,43.3130639 15.4584715,43.5918661 L13.7760911,47.1380934 L12.6808445,49.4484111 L14.4898283,51.2580751 L18.751009,55.5183078 L20.5599928,57.3245717 L22.870292,56.2289133 L26.4117878,54.5425003 C26.6938839,54.6615012 26.97598,54.7779521 27.2580761,54.891003 L28.572542,58.5927815 L29.4324254,61 L40.5709734,61 L41.4308567,58.5927815 L42.7453226,54.891003 C43.0308175,54.7813522 43.3129136,54.6649013 43.591611,54.5425003 L47.1331068,56.2289133 L49.4434059,57.3245717 L51.2515401,55.5183078 L55.5135705,51.2580751 L57.3225543,49.4484111 L56.2239089,47.1380934 L54.5415285,43.5918661 C54.6638834,43.3130639 54.7802905,43.0308618 54.8899002,42.7486596 L58.5868887,41.4336995 L61,40.5768929 L61,29.4273571 L58.5868887,28.5739506 L54.8899002,27.2555904 C54.7802905,26.9733883 54.6638834,26.6911861 54.5415285,26.4123839 L56.2239089,22.8627566 L57.3225543,20.5515889 L55.5135705,18.7385249 L51.248991,14.4825422 L49.4400072,12.6728783 L47.129708,13.7685367 L43.5882122,15.4583497 C43.3061161,15.3325487 43.0274187,15.2160978 42.7419239,15.106447 L41.427458,11.4080685 L40.5641759,9 Z M34.9987255,39.5874853 C32.4726058,39.5874853 30.4180624,37.5321695 30.4180624,35.0051 C30.4180624,32.4788806 32.4726058,30.4201648 34.9987255,30.4201648 C37.5239955,30.4201648 39.5751401,32.4788806 39.5751401,35.0051 C39.5751401,37.5287695 37.5239955,39.5874853 34.9987255,39.5874853 L34.9987255,39.5874853 Z" id="Imported-Layers" sketch:type="MSShapeGroup"></path>
        </g>
    </g>
</svg>