<?xml version="1.0" encoding="UTF-8" standalone="no"?>
<svg width="70px" height="70px" viewBox="0 0 70 70" version="1.1" xmlns="http://www.w3.org/2000/svg" xmlns:xlink="http://www.w3.org/1999/xlink" xmlns:sketch="http://www.bohemiancoding.com/sketch/ns">
    <!-- Generator: Sketch 3.3.2 (12043) - http://www.bohemiancoding.com/sketch -->
    <title>preferences</title>
    <desc>Created with Sketch.</desc>
    <defs></defs>
    <g id="Page-1" stroke="none" stroke-width="1" fill="none" fill-rule="evenodd" sketch:type="MSPage">
        <g id="preferences" sketch:type="MSArtboardGroup" fill="#111111">
            <path d="M25.436539,17.4303714 C27.1633437,16.4884484 29.0443455,15.7936805 31.0320103,15.3936021 L31.0320103,11.9930164 C31.0320103,11.4445886 31.48139,11 32.0370378,11 L37.9624115,11 C38.5174729,11 38.967439,11.4460422 38.967439,11.9930164 L38.967439,15.3934912 L38.967439,15.3934912 C40.9551621,15.793523 42.8362225,16.4882601 44.5630832,17.4301653 L44.5630832,17.4301653 L46.7488831,14.8252304 C47.1014057,14.4051103 47.7314265,14.3533914 48.1570775,14.710555 L52.6961771,18.5193118 C53.1213788,18.8760983 53.1793625,19.5070191 52.8277742,19.9260257 L50.6400381,22.533268 C51.8750072,24.0805507 52.8851662,25.8151607 53.6210519,27.6876348 L56.9681941,27.0974434 C57.5082901,27.0022099 58.0241583,27.3675604 58.1206456,27.9147668 L59.1495759,33.7501207 C59.2459613,34.2967494 58.8848313,34.817334 58.3461669,34.9123151 L54.9937876,35.50343 L54.9937874,35.5034368 C54.9432411,37.5493245 54.5854673,39.5189771 53.9648579,41.3680029 L53.9648579,41.3680029 L56.9082141,43.0673504 C57.3831665,43.3415643 57.5435017,43.9530328 57.2656778,44.4342379 L54.3029909,49.5657621 C54.0254602,50.0464593 53.4141933,50.2131204 52.9404998,49.9396332 L49.9925057,48.2376081 C48.6750611,49.7285711 47.1386633,51.0215275 45.4336464,52.0661435 L46.5970084,55.2624545 C46.7845818,55.7778081 46.5143613,56.3492816 45.9922231,56.5393243 L40.4241931,58.5659215 C39.9026061,58.7557636 39.3272208,58.4905186 39.1401446,57.976531 L37.9766989,54.7799901 L37.9766989,54.7799901 C37.0055187,54.9249065 36.0115289,55 35,55 C33.9882898,55 32.9941249,54.9248796 32.0227788,54.7799122 L32.0227788,54.7799122 L30.8593047,57.976531 C30.6717314,58.4918845 30.0973944,58.7559642 29.5752562,58.5659215 L24.0072263,56.5393243 C23.4856392,56.3494822 23.2153647,55.7764421 23.4024409,55.2624545 L24.5659034,52.0658677 C22.8609859,51.0212507 21.3246783,49.7283181 20.0073082,48.2373976 L17.0589496,49.9396332 C16.5839971,50.2138471 15.9742823,50.0469672 15.6964584,49.5657621 L12.7337715,44.4342379 C12.4562409,43.9535407 12.6175416,43.3408375 13.0912352,43.0673504 L16.0350527,41.3677366 L16.0350527,41.3677366 C15.4145075,39.5188153 15.0567671,37.5492845 15.0062148,35.5035275 L15.0062148,35.5035275 L11.6532824,34.9123151 C11.1131865,34.8170816 10.7533862,34.297327 10.8498734,33.7501207 L11.8788038,27.9147668 C11.9751892,27.368138 12.4925907,27.0024623 13.0312552,27.0974434 L16.3789124,27.6877256 C17.1147478,25.8153524 18.1248265,24.0808271 19.3596934,22.5336044 L17.1716751,19.9260257 C16.8191525,19.5059056 16.8776213,18.8764753 17.3032722,18.5193118 L21.8423718,14.710555 C22.2675735,14.3537684 22.8989779,14.4062239 23.2505662,14.8252304 L25.436539,17.4303714 Z M35,51 C43.836556,51 51,43.836556 51,35 C51,26.163444 43.836556,19 35,19 C26.163444,19 19,26.163444 19,35 C19,43.836556 26.163444,51 35,51 Z" id="Oval-25" sketch:type="MSShapeGroup"></path>
        </g>
    </g>
</svg>