<?xml version="1.0" encoding="UTF-8" standalone="no"?>
<svg width="16px" height="16px" viewBox="0 0 16 16" version="1.1" xmlns="http://www.w3.org/2000/svg" xmlns:xlink="http://www.w3.org/1999/xlink" xmlns:sketch="http://www.bohemiancoding.com/sketch/ns">
    <!-- Generator: Sketch 3.3.1 (12002) - http://www.bohemiancoding.com/sketch -->
    <title>menubar-ball</title>
    <desc>Created with Sketch.</desc>
    <defs></defs>
    <g id="Page-1" stroke="none" stroke-width="1" fill="none" fill-rule="evenodd" sketch:type="MSPage">
        <g id="Artboard-1" sketch:type="MSArtboardGroup" transform="translate(-712.000000, -164.000000)" fill="#FFFFFF">
            <g id="mac" sketch:type="MSLayerGroup" transform="translate(230.000000, 115.000000)">
                <path d="M490,64.5 C485.864474,64.5 482.5,61.1355064 482.5,57 C482.5,52.8644741 485.864474,49.5 490,49.5 C494.135506,49.5 497.5,52.8644741 497.5,57 C497.5,61.1355064 494.135506,64.5 490,64.5 L490,64.5 Z M496.32514,58.0266497 C496.10597,57.9574472 494.342274,57.431446 492.334816,57.7527892 C493.172707,60.0552995 493.51368,61.9306022 493.579328,62.320308 C495.016505,61.3485241 496.0396,59.8091161 496.32514,58.0266497 L496.32514,58.0266497 Z M492.502363,62.9068003 C492.407085,62.3447427 492.035134,60.3859595 491.135756,58.0487796 C491.121654,58.0535845 491.107591,58.0581551 491.093489,58.0630576 C487.480194,59.3221401 486.183122,61.8279216 486.067843,62.0635967 C487.154027,62.9105896 488.519052,63.4159257 490,63.4159257 C490.887405,63.4159257 491.733206,63.2344329 492.502363,62.9068003 L492.502363,62.9068003 Z M485.240714,61.2931114 C485.385819,61.0447013 487.143968,58.1336664 490.447873,57.0657062 C490.531373,57.0387323 490.615576,57.01336 490.700306,56.9894917 C490.539498,56.6255879 490.364333,56.2612544 490.180946,55.9023314 C486.981773,56.8597591 483.877389,56.8197572 483.597102,56.8140147 C483.595129,56.8790568 483.59384,56.9442552 483.59384,57.0097661 C483.59384,58.6551166 484.217561,60.1574136 485.240714,61.2931114 L485.240714,61.2931114 Z M483.729159,55.6976929 C484.015677,55.7014821 486.654999,55.7129475 489.651566,54.9171875 C488.59011,53.0303022 487.445329,51.4438997 487.276435,51.2122873 C485.484222,52.0576394 484.14455,53.7098262 483.729159,55.6976929 L483.729159,55.6976929 Z M488.498777,50.7816812 C488.675856,51.0187821 489.839348,52.6032119 490.889104,54.5319351 C493.167043,53.6781255 494.131385,52.381971 494.246605,52.2178618 C493.115302,51.2141624 491.627733,50.6036064 490,50.6036064 C489.48312,50.6036064 488.980519,50.6655624 488.498777,50.7816812 L488.498777,50.7816812 Z M494.958768,52.9586582 C494.823722,53.1413426 493.750215,54.5175008 491.381627,55.4845383 C491.530697,55.7896698 491.673594,56.1000164 491.806647,56.4124334 C491.853798,56.5231612 491.899718,56.6333617 491.944642,56.7430348 C494.076226,56.4749949 496.194177,56.9045658 496.405378,56.9492359 C496.391296,55.4372119 495.850977,54.0487679 494.958768,52.9586582 L494.958768,52.9586582 Z" id="menubar-ball" sketch:type="MSShapeGroup"></path>
            </g>
        </g>
    </g>
</svg>