<?xml version="1.0" encoding="UTF-8" standalone="no"?>
<svg width="18px" height="21px" viewBox="0 0 18 21" version="1.1" xmlns="http://www.w3.org/2000/svg" xmlns:xlink="http://www.w3.org/1999/xlink" xmlns:sketch="http://www.bohemiancoding.com/sketch/ns">
    <!-- Generator: Sketch 3.3.2 (12043) - http://www.bohemiancoding.com/sketch -->
    <title>pin-pink</title>
    <desc>Created with Sketch.</desc>
    <defs></defs>
    <g id="Web" stroke="none" stroke-width="1" fill="none" fill-rule="evenodd" sketch:type="MSPage">
        <g id="Artboard-1" sketch:type="MSArtboardGroup" transform="translate(-305.000000, -669.000000)">
            <g id="Section-2" sketch:type="MSLayerGroup" transform="translate(286.000000, 556.000000)">
                <g id="feature1" transform="translate(0.000000, 88.000000)" sketch:type="MSShapeGroup">
                    <g id="feature-1-+-window-+-pin-pink">
                        <g id="pin-pink" transform="translate(13.000000, 21.000000)">
                            <path d="M16.2779577,21.9099632 C20.6432596,21.2894368 24,17.5367227 24,13 C24,8.02943725 19.9705627,4 15,4 C10.0294373,4 6,8.02943725 6,13 C6,17.5489011 9.37478624,21.3095787 13.7572187,21.9148927 L14.1063174,24.7076819 C14.12658,24.8697826 14.2695961,25 14.4259366,25 L15.5740634,25 C15.7226257,25 15.8791537,24.8789831 15.9063054,24.7297012 C15.9063054,24.7297012 16.2239603,23.0607497 16.2779577,21.9099632 L16.2779577,21.9099632 Z M15,20.2857143 C19.0237889,20.2857143 22.2857143,17.0237889 22.2857143,13 C22.2857143,8.97621111 19.0237889,5.71428571 15,5.71428571 C10.9762111,5.71428571 7.71428571,8.97621111 7.71428571,13 C7.71428571,17.0237889 10.9762111,20.2857143 15,20.2857143 Z M15,15.5714286 C16.4201608,15.5714286 17.5714286,14.4201608 17.5714286,13 C17.5714286,11.5798392 16.4201608,10.4285714 15,10.4285714 C13.5798392,10.4285714 12.4285714,11.5798392 12.4285714,13 C12.4285714,14.4201608 13.5798392,15.5714286 15,15.5714286 Z" id="Oval-37" fill="#F8609A"></path>
                            <rect id="Rectangle-47" x="0" y="0" width="30" height="30"></rect>
                        </g>
                    </g>
                </g>
            </g>
        </g>
    </g>
</svg>