<?xml version="1.0" encoding="UTF-8" standalone="no"?>
<svg width="11px" height="21px" viewBox="0 0 11 21" version="1.1" xmlns="http://www.w3.org/2000/svg" xmlns:xlink="http://www.w3.org/1999/xlink" xmlns:sketch="http://www.bohemiancoding.com/sketch/ns">
    <!-- Generator: Sketch 3.3.1 (12002) - http://www.bohemiancoding.com/sketch -->
    <title>pin-pink</title>
    <desc>Created with Sketch.</desc>
    <defs>
        <linearGradient x1="50%" y1="0%" x2="50%" y2="100%" id="linearGradient-1">
            <stop stop-color="#FE6DA5" offset="0%"></stop>
            <stop stop-color="#EC4988" offset="100%"></stop>
        </linearGradient>
    </defs>
    <g id="Page-1" stroke="none" stroke-width="1" fill="none" fill-rule="evenodd" sketch:type="MSPage">
        <g id="Artboard-1" sketch:type="MSArtboardGroup" transform="translate(-243.000000, -595.000000)" fill="url(#linearGradient-1)">
            <g id="feature" sketch:type="MSLayerGroup" transform="translate(230.000000, 578.000000)">
                <path d="M18.4007661,17.8571429 C15.2575202,17.8571429 13,20.1146631 13,23.2579089 C13,25.8610782 15.2575202,28.1185984 18.4007661,28.1185984 C21.0039353,28.1185984 23.2614555,25.8610782 23.2614555,23.2579089 C23.2614555,20.1146631 21.0039353,17.8571429 18.4007661,17.8571429 L18.4007661,17.8571429 Z M16.8005391,23.1778976 C15.9896132,23.1778976 15.2803235,22.4686078 15.2803235,21.6576819 C15.2803235,20.8467561 15.9896132,20.1374663 16.8005391,20.1374663 C17.6114649,20.1374663 18.3207547,20.8467561 18.3207547,21.6576819 C18.3207547,22.4686078 17.6114649,23.1778976 16.8005391,23.1778976 L16.8005391,23.1778976 Z M17.5606469,37.2398922 L18.3207547,38 L19.0808625,37.2398922 L19.0808625,28.8787062 L17.5606469,28.8787062 L17.5606469,37.2398922 Z" id="pin-pink" sketch:type="MSShapeGroup"></path>
            </g>
        </g>
    </g>
</svg>