<?xml version="1.0" encoding="UTF-8" standalone="no"?>
<svg width="70px" height="70px" viewBox="0 0 70 70" version="1.1" xmlns="http://www.w3.org/2000/svg" xmlns:xlink="http://www.w3.org/1999/xlink" xmlns:sketch="http://www.bohemiancoding.com/sketch/ns">
    <!-- Generator: Sketch 3.3.2 (12043) - http://www.bohemiancoding.com/sketch -->
    <title>preferences</title>
    <desc>Created with Sketch.</desc>
    <defs></defs>
    <g id="In-App-Icons" stroke="none" stroke-width="1" fill="none" fill-rule="evenodd" sketch:type="MSPage">
        <g id="preferences" sketch:type="MSArtboardGroup" fill="#111111">
            <path d="M25.7675556,17.2538289 C27.3934337,16.4062358 29.1503716,15.7755272 31,15.4000725 L31,11.9998075 C31,11.4476291 31.4530363,11 31.9970301,11 L38.0029699,11 C38.5536144,11 39,11.4437166 39,11.9998075 L39,15.4000725 L39,15.4000725 C40.926938,15.7912202 42.7532751,16.4594056 44.4356269,17.3612443 L44.4356269,17.3612443 L46.6127559,14.766643 C46.9680351,14.3432378 47.5979335,14.2868779 48.0206701,14.641596 L52.5286905,18.4242742 C52.9509808,18.7786179 53.0043624,19.4102302 52.6500249,19.8325132 L50.5144814,22.3775548 C51.8237981,23.98491 52.8883131,25.7996018 53.65119,27.7647939 L57.0029743,27.1737839 C57.5472936,27.0778057 58.0660512,27.4395224 58.1618778,27.982982 L59.1837631,33.7783814 C59.2794885,34.3212673 58.9143887,34.8394235 58.3715121,34.9351473 L54.9930915,35.5308539 L54.9930915,35.5308539 C54.9382421,37.6358819 54.5581396,39.6599397 53.9011864,41.5546251 L53.9011864,41.5546251 L56.460704,43.0323633 C56.9393703,43.3087215 57.1042547,43.9192635 56.828333,44.3971739 L53.8859317,49.4935625 C53.6103012,49.9709685 52.9975542,50.1332174 52.5201565,49.8575917 L49.898067,48.3437277 C48.6010324,49.790868 47.0962288,51.0479391 45.4305675,52.0680295 L46.7960251,55.8195936 C46.9850652,56.338977 46.7189251,56.912665 46.200362,57.1014066 L40.6704563,59.1141276 C40.1524405,59.30267 39.5787574,59.0330936 39.3902184,58.5150868 L38.0279463,54.7722752 L38.0279463,54.7722752 C37.0404952,54.9222405 36.0293284,55 35,55 C34.0162188,55 33.0490275,54.9289698 32.1032749,54.7917582 L32.1032749,54.7917582 L30.7480941,58.5150868 C30.559054,59.0344703 29.9864193,59.3028692 29.4678562,59.1141276 L23.9379505,57.1014066 C23.4199348,56.9128642 23.1537483,56.3376004 23.3422874,55.8195936 L24.6826875,52.1368745 C22.8735133,51.0453141 21.2512272,49.6753551 19.8751629,48.0863311 L16.8072496,49.8575917 C16.3285832,50.1339499 15.7173961,49.9714729 15.4414744,49.4935625 L12.4990731,44.3971739 C12.2234426,43.919768 12.3893044,43.307989 12.8667021,43.0323633 L15.9892417,41.2295642 L15.9892417,41.2295642 C15.3933498,39.4099516 15.0514226,37.475336 15.0053592,35.4676163 L15.0053592,35.4676163 L11.9855773,34.9351473 C11.441258,34.8391691 11.0774997,34.321841 11.1733263,33.7783814 L12.1952115,27.982982 C12.290937,27.440096 12.8112384,27.0780601 13.354115,27.1737839 L16.3717877,27.705881 C17.1612581,25.6912214 18.2681194,23.8358199 19.6308514,22.2011968 L17.6432899,19.8325132 C17.2880107,19.4091079 17.3418878,18.7789923 17.7646243,18.4242742 L22.2726447,14.641596 C22.694935,14.2872523 23.3262213,14.34436 23.6805588,14.766643 L25.7675556,17.2538289 Z M35,51 C43.836556,51 51,43.836556 51,35 C51,26.163444 43.836556,19 35,19 C26.163444,19 19,26.163444 19,35 C19,43.836556 26.163444,51 35,51 Z" id="Oval-25" sketch:type="MSShapeGroup"></path>
        </g>
    </g>
</svg>