<?xml version="1.0" encoding="UTF-8" standalone="no"?>
<svg width="70px" height="70px" viewBox="0 0 70 70" version="1.1" xmlns="http://www.w3.org/2000/svg" xmlns:xlink="http://www.w3.org/1999/xlink" xmlns:sketch="http://www.bohemiancoding.com/sketch/ns">
    <!-- Generator: Sketch 3.3.2 (12043) - http://www.bohemiancoding.com/sketch -->
    <title>quit</title>
    <desc>Created with Sketch.</desc>
    <defs></defs>
    <g id="In-App-Icons" stroke="none" stroke-width="1" fill="none" fill-rule="evenodd" sketch:type="MSPage">
        <g id="quit" sketch:type="MSArtboardGroup" fill="#111111">
            <g id="Oval-25-+-Rectangle-86" sketch:type="MSLayerGroup" transform="translate(12.000000, 11.000000)">
                <path d="M36.3188692,5.26502699 L36.3296002,5.25418791 L36.3296002,5.25418791 C42.1827706,9.42370455 46,16.2660714 46,24 C46,36.7025492 35.7025492,47 23,47 C10.2974508,47 0,36.7025492 0,24 C0,16.2660714 3.81722943,9.42370455 9.67039975,5.25418791 L9.68586292,5.2698068 L9.68586292,5.2698068 C9.96937401,5.11413168 10.2943172,5.02569697 10.6397095,5.02569697 C11.744279,5.02569697 12.6725464,6.01922605 12.6725464,6.76483163 C12.6725464,7.28103503 12.6287513,7.765789 12.4662814,8.0782256 L12.5299828,8.14256856 C12.4531536,8.19339794 12.3767154,8.24477072 12.3006736,8.29668141 C12.2681958,8.32507835 12.2330433,8.3494195 12.1950175,8.36933127 C7.24330703,11.7987702 4,17.5206276 4,24 C4,34.4934102 12.5065898,43 23,43 C33.4934102,43 42,34.4934102 42,24 C42,17.4325096 38.6678766,11.6432783 33.6020119,8.23068829 C33.5598362,8.20991996 33.5211132,8.18382097 33.4855839,8.15287835 C33.4803968,8.14943928 33.4752079,8.14600268 33.4700172,8.14256856 L33.4719466,8.14061973 C33.1825011,7.87217624 33.1128575,7.27123563 33.1128575,6.62028362 C33.1128575,5.87467803 34.0411249,4.88114895 35.1456944,4.88114895 C35.5839695,4.88114895 35.9893183,5.02354275 36.3188692,5.26502699 Z" id="Oval-25" sketch:type="MSShapeGroup"></path>
                <path d="M25,22 L25,2 C25,0.8954305 24.1045695,0 23,0 C21.8954305,0 21,0.8954305 21,2 L21,22 C21,23.1045695 21.8954305,24 23,24 C24.1045695,24 25,23.1045695 25,22 Z" id="Rectangle-86" sketch:type="MSShapeGroup"></path>
            </g>
        </g>
    </g>
</svg>