<?xml version="1.0" encoding="UTF-8" standalone="no"?>
<svg width="70px" height="70px" viewBox="0 0 70 70" version="1.1" xmlns="http://www.w3.org/2000/svg" xmlns:xlink="http://www.w3.org/1999/xlink" xmlns:sketch="http://www.bohemiancoding.com/sketch/ns">
    <!-- Generator: Sketch 3.3.2 (12043) - http://www.bohemiancoding.com/sketch -->
    <title>refresh</title>
    <desc>Created with Sketch.</desc>
    <defs></defs>
    <g id="In-App-Icons" stroke="none" stroke-width="1" fill="none" fill-rule="evenodd" sketch:type="MSPage">
        <g id="refresh" sketch:type="MSArtboardGroup" fill="#111111">
            <path d="M52.1675091,48.7590529 C55.1911289,44.991268 57,40.2068762 57,35 C57,22.8497355 47.1502645,13 35,13 C34.3258206,13 33.6587241,13.0303252 33,13.089686 L33,13.089686 L33,10 L27.6235352,13.840332 C26.7227577,14.4837445 26.7268814,15.519201 27.6235352,16.159668 L33,20 L33,17.0048201 L33.1009769,17.0989826 C33.7250433,17.0335472 34.358604,17 35,17 C44.9411255,17 53,25.0588745 53,35 C53,39.2486466 51.5280113,43.1534917 49.0661994,46.2323699 L49.0873166,46.253487 C48.7091358,46.617352 48.473816,47.1286377 48.473816,47.6948853 C48.473816,48.7994548 49.3692465,49.6948853 50.473816,49.6948853 C51.1872895,49.6948853 51.8135051,49.3212899 52.1675091,48.7590529 Z M18.6042201,20.3307255 C15.1192058,24.2232516 13,29.3641423 13,35 C13,47.1502645 22.8497355,57 35,57 C35.6741794,57 36.3412759,56.9696748 37,56.910314 L37,56.910314 L37,60 L42.3764648,56.159668 C43.2731186,55.519201 43.2772423,54.4837445 42.3764648,53.840332 L37,50 L37,52.8901424 C36.3433323,52.9627334 35.6760182,53 35,53 C25.0588745,53 17,44.9411255 17,35 C17,30.3284753 18.7795926,26.0725966 21.6978332,22.8733086 L21.6941435,22.8698678 C21.9932815,22.5203056 22.1739502,22.0663467 22.1739502,21.5701904 C22.1739502,20.4656209 21.2785197,19.5701904 20.1739502,19.5701904 C19.5375165,19.5701904 18.9705141,19.8674612 18.6042201,20.3307255 L18.6042201,20.3307255 Z" id="Oval-25" sketch:type="MSShapeGroup"></path>
        </g>
    </g>
</svg>