<?xml version="1.0" encoding="UTF-8" standalone="no"?>
<svg width="10px" height="10px" viewBox="0 0 10 10" version="1.1" xmlns="http://www.w3.org/2000/svg" xmlns:xlink="http://www.w3.org/1999/xlink" xmlns:sketch="http://www.bohemiancoding.com/sketch/ns">
    <!-- Generator: Sketch 3.3.1 (12002) - http://www.bohemiancoding.com/sketch -->
    <title>rubber-ball</title>
    <desc>Created with Sketch.</desc>
    <defs>
        <linearGradient x1="50%" y1="0%" x2="50%" y2="100%" id="linearGradient-1">
            <stop stop-color="#FE6DA5" offset="0%"></stop>
            <stop stop-color="#EC4988" offset="100%"></stop>
        </linearGradient>
    </defs>
    <g id="Page-1" stroke="none" stroke-width="1" fill="none" fill-rule="evenodd" sketch:type="MSPage">
        <g id="Artboard-1" sketch:type="MSArtboardGroup" transform="translate(-1038.000000, -599.000000)" fill="url(#linearGradient-1)">
            <g id="feature-copy-2" sketch:type="MSLayerGroup" transform="translate(1004.000000, 586.000000)">
                <path d="M39,21 L39,21 C40.6568542,21 42,19.6568542 42,18 C42,16.3431458 40.6568542,15 39,15 C37.3431458,15 36,16.3431458 36,18 C36,19.6568542 37.3431458,21 39,21 L39,21 Z M39,23 L39,23 C36.2385763,23 34,20.7614237 34,18 C34,15.2385763 36.2385763,13 39,13 C41.7614237,13 44,15.2385763 44,18 C44,20.7614237 41.7614237,23 39,23 L39,23 Z" id="rubber-ball" sketch:type="MSShapeGroup"></path>
            </g>
        </g>
    </g>
</svg>