<?xml version="1.0" encoding="UTF-8" standalone="no"?>
<svg width="110px" height="89px" viewBox="0 0 110 89" version="1.1" xmlns="http://www.w3.org/2000/svg" xmlns:xlink="http://www.w3.org/1999/xlink" xmlns:sketch="http://www.bohemiancoding.com/sketch/ns">
    <!-- Generator: Sketch 3.3.1 (12002) - http://www.bohemiancoding.com/sketch -->
    <title>window</title>
    <desc>Created with Sketch.</desc>
    <defs>
        <linearGradient x1="50%" y1="0%" x2="50%" y2="100%" id="linearGradient-1">
            <stop stop-color="#FE6DA5" offset="0%"></stop>
            <stop stop-color="#EC4988" offset="100%"></stop>
        </linearGradient>
    </defs>
    <g id="Page-1" stroke="none" stroke-width="1" fill="none" fill-rule="evenodd" sketch:type="MSPage">
        <g id="Artboard-1" sketch:type="MSArtboardGroup" transform="translate(-249.000000, -777.000000)" fill="url(#linearGradient-1)">
            <g id="window" sketch:type="MSLayerGroup" transform="translate(249.000000, 776.000000)">
                <path d="M0,36 L0,36 L2,34 L2,85.9950917 C2,87.0994464 2.89756741,88 3.996266,88 L106.003734,88 C107.101995,88 108,87.1009357 108,85.9950917 L108,34 L110,36 L0,36 Z M0,34 L110,34 L110,85.9950917 C110,88.2069415 108.205131,90 106.003734,90 L3.996266,90 C1.78918923,90 0,88.200205 0,85.9950917 L0,34 L0,34 Z" id="Shape" sketch:type="MSShapeGroup"></path>
                <path d="M59.314649,8 L106.003734,8 C107.107486,8 108,8.8926089 108,9.9992748 L108,34 L2,34 L2,9.9992748 C2,8.89716919 2.89737426,8 3.996266,8 L50.6826117,8 L55.0000002,3.50000001 L59.314649,8 Z M49.9949405,6 L3.996266,6 C1.79486856,6 0,7.79053632 0,9.9992748 L0,36 L110,36 L110,9.9992748 C110,7.78679466 108.210811,6 106.003734,6 L60,6 L54.9974702,0.997470242 L49.9949405,6 L49.9949405,6 Z" id="Shape" sketch:type="MSShapeGroup"></path>
            </g>
        </g>
    </g>
</svg>